<?xml version="1.0" encoding="UTF-8" standalone="no"?>
<!-- Generator: Adobe Illustrator 22.1.0, SVG Export Plug-In . SVG Version: 6.00 Build 0)  -->

<svg
   version="1.2"
   id="Layer_1"
   x="0px"
   y="0px"
   viewBox="0 0 2350 2314.8"
   xml:space="preserve"
   sodipodi:docname="logo-github.svg"
   inkscape:version="1.2.2 (732a01da63, 2022-12-09)"
   xmlns:inkscape="http://www.inkscape.org/namespaces/inkscape"
   xmlns:sodipodi="http://sodipodi.sourceforge.net/DTD/sodipodi-0.dtd"
   xmlns="http://www.w3.org/2000/svg"
   xmlns:svg="http://www.w3.org/2000/svg"><defs
   id="defs7" /><sodipodi:namedview
   id="namedview5"
   pagecolor="#ffffff"
   bordercolor="#000000"
   borderopacity="0.25"
   inkscape:showpageshadow="2"
   inkscape:pageopacity="0.0"
   inkscape:pagecheckerboard="0"
   inkscape:deskcolor="#d1d1d1"
   showgrid="false"
   inkscape:zoom="0.35813028"
   inkscape:cx="1026.1629"
   inkscape:cy="1161.5885"
   inkscape:window-width="1920"
   inkscape:window-height="1009"
   inkscape:window-x="-8"
   inkscape:window-y="-8"
   inkscape:window-maximized="1"
   inkscape:current-layer="Layer_1" />
<path
   d="M1175,0C525.8,0,0,525.8,0,1175c0,552.2,378.9,1010.5,890.1,1139.7c-5.9-14.7-8.8-35.3-8.8-55.8v-199.8H734.4  c-79.3,0-152.8-35.2-185.1-99.9c-38.2-70.5-44.1-179.2-141-246.8c-29.4-23.5-5.9-47,26.4-44.1c61.7,17.6,111.6,58.8,158.6,120.4  c47,61.7,67.6,76.4,155.7,76.4c41.1,0,105.7-2.9,164.5-11.8c32.3-82.3,88.1-155.7,155.7-190.9c-393.6-47-581.6-240.9-581.6-505.3  c0-114.6,49.9-223.3,132.2-317.3c-26.4-91.1-61.7-279.1,11.8-352.5c176.3,0,282,114.6,308.4,143.9c88.1-29.4,185.1-47,284.9-47  c102.8,0,196.8,17.6,284.9,47c26.4-29.4,132.2-143.9,308.4-143.9c70.5,70.5,38.2,261.4,8.8,352.5c82.3,91.1,129.3,202.7,129.3,317.3  c0,264.4-185.1,458.3-575.7,499.4c108.7,55.8,185.1,214.4,185.1,331.9V2256c0,8.8-2.9,17.6-2.9,26.4  C2021,2123.8,2350,1689.1,2350,1175C2350,525.8,1824.2,0,1175,0L1175,0z"
   id="path2" />
<path
   style="fill:#000000;stroke-width:2.79668;stroke-linecap:round;stroke-linejoin:round;fill-opacity:1;stroke:#000000;stroke-opacity:1"
   d="m 873.98361,2309.2858 c -3.83938,-1.2546 -27.71338,-8.8167 -53.05332,-16.8047 -151.93431,-47.8946 -291.2122,-125.9777 -414.65356,-232.4663 -16.8933,-14.5733 -50.20274,-46.4532 -74.02097,-70.8443 C 152.78465,1805.3827 41.400866,1572.2384 9.5846253,1313.7677 0.1944594,1237.4833 0.19657902,1113.5569 9.5893538,1037.332 29.052684,879.38176 77.25873,732.52127 154.86233,594.75562 212.31757,492.7583 308.18293,374.73664 396.57858,297.1742 454.41611,246.42486 532.79817,190.16004 594.57485,155.04699 787.147,45.591523 1000.6957,-5.6423519 1227.207,3.2680104 1607.9884,18.246949 1961.6442,223.56816 2167.4534,549.14473 c 94.8985,150.12322 150.9413,310.16428 174.3745,497.96027 3.4284,27.4752 4.7552,60.7866 4.8935,122.8603 0.2014,90.3298 -2.2497,124.5543 -14.0986,196.8557 -61.3418,374.3055 -304.2744,698.1089 -647.4819,863.0246 -39.5905,19.0238 -97.9821,43.3672 -113.1543,47.1741 l -6.9137,1.7347 v -166.9657 c 0,-149.6702 -0.5155,-169.3543 -4.9759,-190.0239 -11.6737,-54.0954 -37.1998,-114.9134 -67.6156,-161.0992 -20.185,-30.6507 -59.9065,-72.4185 -85.5025,-89.9075 l -19.6097,-13.3988 35.7898,-4.9268 c 182.4097,-25.1107 321.2102,-86.0961 412.8646,-181.4022 61.1661,-63.6031 98.2552,-137.0629 114.6452,-227.0696 7.7333,-42.4678 7.1933,-132.4649 -1.022,-170.3291 -16.9526,-78.13402 -51.3928,-149.44609 -103.1926,-213.67112 l -16.9403,-21.00384 9.3875,-36.68338 c 15.1447,-59.1805 21.5989,-108.93787 21.666,-167.02958 0.043,-37.40937 -1.1795,-55.9729 -4.7818,-72.59928 -5.2937,-24.43354 -17.4449,-53.1119 -28.8261,-68.03348 l -7.2754,-9.53854 -25.9266,1.70307 c -95.7245,6.28791 -184.8933,46.53279 -259.6353,117.18205 l -25.9821,24.55944 -29.5151,-8.59796 c -169.3005,-49.31823 -346.36,-48.69658 -513.11704,1.80152 l -24.35527,7.37539 -27.68747,-26.57511 C 841.17971,533.13941 752.25967,493.14322 656.31727,486.85575 l -27.07451,-1.77429 -11.61923,17.39989 c -37.77899,56.5745 -40.97434,165.9223 -8.80308,301.24923 l 8.73819,36.75684 -10.86264,12.34062 c -47.02984,53.42872 -90.49824,136.0219 -107.89454,205.00766 -24.50404,97.1719 -11.54133,215.8054 33.4062,305.7299 67.24843,134.5411 198.92166,226.4602 392.72867,274.1581 37.86613,9.3192 116.35827,23.6828 129.41837,23.6828 10.0892,0 8.0168,3.1479 -9.4992,14.4287 -46.39079,29.8771 -98.35942,95.3324 -124.47335,156.7761 -5.65498,13.3056 -9.68385,19.0976 -13.91564,20.0052 -21.6799,4.6499 -65.82917,7.7787 -127.80519,9.0573 -84.71548,1.7477 -102.94379,-0.8539 -129.94355,-18.5459 -18.64288,-12.2161 -24.68897,-18.4636 -56.96248,-58.861 -27.61802,-34.57 -55.95595,-62.9742 -79.80886,-79.9956 -22.88215,-16.3287 -63.53051,-35.1333 -79.22273,-36.6498 -34.34865,-3.3196 -51.19219,23.9622 -26.99571,43.7254 4.90905,4.0097 19.69992,17.9733 32.86857,31.0302 35.09488,34.7973 52.5939,66.9532 82.05812,150.7887 21.34615,60.7368 32.67766,81.5524 58.66991,107.7742 17.75069,17.9075 27.34784,25.0247 46.14611,34.2218 44.68893,21.864 55.8322,23.5844 161.06401,24.8663 l 92.65315,1.1286 1.0707,116.3506 c 0.6947,75.4928 2.16383,119.5374 4.18365,125.4256 3.39656,9.9016 2.34884,10.538 -10.4586,6.3529 z"
   id="path860" /></svg>
